<svg xmlns="http://www.w3.org/2000/svg" fill="none" viewBox="0 0 61 70">
<path fill="#000" d="M44.4 34V17.4c0-.44-.36-.8-.8-.8-.44 0-.8.36-.8.8v9.4c0 3.98-3.22 7.2-7.2 7.2s-7.2-3.22-7.2-7.2v-9.4c0-.44-.36-.8-.8-.8-.44 0-.8.36-.8.8V34h-6.4V17.4c0-3.98 3.22-7.2 7.2-7.2s7.2 3.22 7.2 7.2v9.4c0 .44.36.8.8.8.44 0 .8-.36.8-.8v-9.4c0-3.98 3.22-7.2 7.2-7.2s7.2 3.22 7.2 7.2V34h-6.4zM16.9 13.7c0-1.92-1.58-3.5-3.5-3.5s-3.5 1.58-3.5 3.5 1.58 3.5 3.5 3.5 3.5-1.58 3.5-3.5zM16.6 34V19.2h-6.4V34h6.4zM61 56.6V13.4C61 6.02 54.98 0 47.6 0H13.4C6.02 0 0 6.02 0 13.4v43.2C0 63.98 6.02 70 13.4 70h19.2v-6.4H13.4c-3.86 0-7-3.14-7-7V13.4c0-3.86 3.14-7 7-7h34.2c3.86 0 7 3.14 7 7v43.2c0 3.86-3.14 7-7 7s-7-3.14-7-7V43.2c0-3.98-3.22-7.2-7.2-7.2s-7.2 3.22-7.2 7.2v9.4c0 .44-.36.8-.8.8-.44 0-.8-.36-.8-.8v-9.4c0-3.98-3.22-7.2-7.2-7.2s-7.2 3.22-7.2 7.2v16.6h6.4V43.2c0-.44.36-.8.8-.8.44 0 .8.36.8.8v9.4c0 3.98 3.22 7.2 7.2 7.2s7.2-3.22 7.2-7.2v-9.4c0-.44.36-.8.8-.8.44 0 .8.36.8.8v13.4c0 7.38 6.02 13.4 13.4 13.4C54.98 70 61 63.98 61 56.6zm-9.9-17.1c0-1.92-1.58-3.5-3.5-3.5s-3.5 1.58-3.5 3.5 1.58 3.5 3.5 3.5 3.5-1.58 3.5-3.5zm-.3 20.3V45h-6.4v14.8h6.4z"></path>
</svg>